<?xml version="1.0" encoding="UTF-8" standalone="no"?>
<svg
   xmlns:dc="http://purl.org/dc/elements/1.1/"
   xmlns:cc="http://creativecommons.org/ns#"
   xmlns:rdf="http://www.w3.org/1999/02/22-rdf-syntax-ns#"
   xmlns:svg="http://www.w3.org/2000/svg"
   xmlns="http://www.w3.org/2000/svg"
   xmlns:sodipodi="http://sodipodi.sourceforge.net/DTD/sodipodi-0.dtd"
   xmlns:inkscape="http://www.inkscape.org/namespaces/inkscape"
   viewBox="0 0 246.793 55.632282"
   width="246.793"
   version="1.1"
   height="55.632282"
   id="svg3682"
   sodipodi:docname="De_Bijenkorf_logo.svg"
   inkscape:version="0.92.1 r15371">
  <metadata
     id="metadata3688">
    <rdf:RDF>
      <cc:Work
         rdf:about="">
        <dc:format>image/svg+xml</dc:format>
        <dc:type
           rdf:resource="http://purl.org/dc/dcmitype/StillImage" />
        <dc:title></dc:title>
      </cc:Work>
    </rdf:RDF>
  </metadata>
  <defs
     id="defs3686" />
  <sodipodi:namedview
     pagecolor="#ffffff"
     bordercolor="#666666"
     borderopacity="1"
     objecttolerance="10"
     gridtolerance="10"
     guidetolerance="10"
     inkscape:pageopacity="0"
     inkscape:pageshadow="2"
     inkscape:window-width="640"
     inkscape:window-height="480"
     id="namedview3684"
     showgrid="false"
     fit-margin-top="0"
     fit-margin-left="0"
     fit-margin-right="0"
     fit-margin-bottom="0"
     inkscape:zoom="1"
     inkscape:cx="49.98324"
     inkscape:cy="38.845481"
     inkscape:window-x="0"
     inkscape:window-y="0"
     inkscape:window-maximized="1"
     inkscape:current-layer="svg3682" />
  <path
     d="m 63.321379,26.599576 c 2.323216,-1.171601 3.617222,-3.070143 3.622218,-5.79555 -0.005,-5.17103 -3.432364,-6.879718 -8.515961,-6.879718 H 45.879771 l -0.0025,27.751191 12.912585,0.0025 c 4.831291,-0.0025 9.435255,-2.418144 9.427761,-8.056314 -0.0075,-3.447353 -1.648734,-6.052853 -4.89624,-7.022108 z M 51.737773,18.663169 h 5.498278 c 2.080902,0 4.039399,0.544582 4.029406,3.192549 0.01,2.328212 -1.526328,3.29497 -3.584747,3.312457 h -5.945435 z m 6.280178,18.278465 H 51.735275 V 29.31499 l 6.397588,-0.0025 c 2.493085,0.0025 4.216762,1.141624 4.216762,3.971951 -0.0025,2.882786 -2.015952,3.657191 -4.331674,3.657191 z M 75.941688,18.465821 v -4.541513 h -5.308424 l 0.0075,4.544011 z m 0,3.107614 -5.30093,0.0025 -0.0075,20.099566 5.308424,0.0025 z m 3.215032,20.846493 c -0.0075,1.503845 -0.986743,1.791125 -2.060918,1.788626 -0.44216,0.0025 -0.821869,-0.04247 -1.154114,-0.162375 v 4.554003 c 0.562069,0.08244 1.154114,0.15738 1.713684,0.152383 5.340899,0.0075 6.794783,-1.943507 6.804775,-6.065342 V 21.583427 h -5.308424 z m 0.0025,-23.954107 5.298431,0.005 v -4.546509 h -5.308424 z m 17.693913,2.570526 c -5.8605,0 -9.867423,4.588977 -9.857431,10.616848 0,6.210232 3.769606,10.569384 9.857431,10.569384 4.354157,0.005 7.546707,-2.025944 9.033067,-6.762307 l -4.67142,0.01249 c -0.32974,1.234053 -2.050921,2.595507 -4.179287,2.600503 -2.947736,-0.01249 -4.59647,-1.603768 -4.748853,-5.103581 h 13.94179 c 0.37721,-6.192745 -2.80784,-11.933337 -9.375297,-11.933337 z m -4.556501,8.446015 c 0.05746,-1.558803 1.044198,-4.289207 4.409114,-4.28421 2.575523,-0.0025 3.727134,1.478864 4.224254,4.274218 z M 119.2934,21.031351 c -2.23828,0.005 -4.5615,1.091662 -5.90047,3.344932 l -0.10991,-0.0025 v -2.80035 l -5.04613,0.01 v 20.089574 h 5.30842 l -0.005,-10.519422 c 0.01,-4.096855 1.23405,-5.765573 4.10934,-5.765573 2.46811,0.005 3.39989,1.626251 3.39989,4.943704 v 11.343789 l 5.29843,-0.005 0.01,-12.360509 c 0,-4.973681 -1.41642,-8.278643 -7.06458,-8.278643 z m 28.09593,0.552076 h -6.27768 l -6.68237,7.231947 V 13.924308 h -5.31342 l 0.015,27.748693 5.29843,0.005 v -6.919687 l 2.04843,-2.053423 5.31092,8.968113 h 6.41507 L 140.10243,28.96776 Z m 9.70005,-0.54708 c -6.05285,0.0075 -9.97984,4.201774 -9.98733,10.621844 0.007,6.372607 3.93448,10.564388 9.98733,10.569385 6.09032,-0.005 10.01231,-4.199276 10.00482,-10.579377 0.007,-6.412576 -3.92449,-10.611852 -10.00482,-10.611852 z m 0,17.024428 c -3.59224,0.01499 -4.67141,-3.220027 -4.67141,-6.40758 0.007,-3.23002 1.09166,-6.457541 4.67141,-6.445051 3.61472,-0.01249 4.70139,3.215031 4.70888,6.445051 0,3.187553 -1.09416,6.415074 -4.70888,6.40758 z m 17.36916,-12.752708 v -3.72464 h -5.05112 l 0.007,20.089574 5.30093,0.005 v -9.048053 c -0.01,-3.547276 1.34897,-6.46004 5.22599,-6.46004 0.63951,0 1.41891,0.07744 1.90604,0.194851 l 0.005,-5.13106 c -0.34973,-0.124904 -0.78689,-0.192353 -1.1641,-0.192353 -2.57552,-0.005 -5.18352,1.736167 -6.23022,4.266724 z m 9.5152,-5.285941 0.01,1.561301 v 3.689667 l -0.01,16.404904 5.30842,-0.005 -0.007,-16.399907 h 3.66218 V 21.57593 l -3.66218,-0.0025 -0.005,-1.201578 c 0.005,-1.66622 0.60454,-2.288243 2.02594,-2.288243 0.67449,-0.0075 1.304,0.03497 1.93852,0.114912 v -4.119337 c -0.90181,-0.03997 -1.87107,-0.154881 -2.81035,-0.154881 -4.32418,0 -6.45004,2.568028 -6.45004,6.097818 z M 38.133219,26.337277 c -1.696197,-3.54228 -4.309191,-5.578217 -8.148743,-5.578217 -6.235212,0 -9.342826,5.181022 -9.342826,11.001553 0,5.518262 4.179291,10.436986 9.317846,10.436986 7.614153,0 9.03806,-5.882983 9.165462,-6.552469 l -4.878754,-0.0075 c -0.9118,1.658726 -2.180825,2.475599 -3.98444,2.475599 -2.662956,0 -4.928716,-2.283247 -4.796318,-5.293436 l 13.90932,-0.01 c 0,-0.681976 0.01,-1.301501 -0.147387,-2.503078 -0.149885,-1.231554 -0.55957,-2.887783 -1.09416,-3.969452 z m -12.58034,3.017683 c 0.08743,-1.968489 1.164106,-4.618954 4.491551,-4.62395 2.710419,-0.0025 4.25923,2.103385 4.264226,4.626448 z M 18.54576,37.825955 V 13.891833 l -4.666417,-0.0075 -0.07744,9.59763 C 13.307282,22.670093 11.371269,20.908945 8.0937852,20.913941 3.7096515,20.921435 0,24.830934 0,32.022911 c 0,4.971183 2.9652232,10.324572 8.1987046,10.324572 2.8128404,0.005 4.5340184,-1.521331 5.4658034,-2.745391 0,0.911799 0.04746,1.154113 0.109915,2.080902 h 4.803812 c -0.07994,-1.269026 -0.02748,-2.570527 -0.03247,-3.857039 z m -8.9556238,0.467142 c -3.692165,0 -4.7363632,-3.717146 -4.7363632,-6.62991 0.01249,-2.750388 0.8968114,-6.622415 4.7363632,-6.622415 3.3524258,0 4.4765628,3.864533 4.4815588,6.617419 -0.005,2.755385 -1.121639,6.634906 -4.4815588,6.634906 z M 224.48763,0 202.07234,13.906822 202.06484,41.732955 224.48763,55.632283 246.793,41.802902 V 13.846868 Z m -1.97349,49.624396 -16.58976,-10.294595 0.007,-23.007334 16.58226,-10.2945955 v 2.7104188 c -3.56476,0.5270953 -8.23118,4.7338647 -8.23118,10.4694607 l -0.01,9.330336 -6.20523,0.0025 v 10.30209 h 14.4464 z m 3.84205,0.03747 0.01,-14.988491 -14.4514,0.01499 -0.005,-1.99347 6.22272,0.0025 V 19.360134 c -0.007,-3.427368 2.57052,-6.749817 6.70485,-6.749817 h 1.52133 l 0.007,-6.6399014 16.57228,10.2821054 0.005,23.134735 z"
     id="path3680"
     inkscape:connector-curvature="0"
     style="stroke-width:2.49808192" />
</svg>
